<svg id="Layer_1" data-name="Layer 1" xmlns="http://www.w3.org/2000/svg" viewBox="0 0 110 110"><defs><style>.cls-1{fill:#fff;}</style></defs><title>flowene logo</title><rect width="110" height="110" rx="14.45" ry="14.45"/><path class="cls-1" d="M67.94,70.43C61.75,63.85,80.77,48,89.84,41.09A5.91,5.91,0,0,0,91.11,33L89.43,30.6a5.91,5.91,0,0,0-8.94-.91A167.16,167.16,0,0,0,62.08,50.2c-2.12,3.06-6.27.53-3.76-3.8,3.93-6.78,12.61-16.22,18.42-22.21a5.91,5.91,0,0,0-1.6-9.4L73,13.71a5.91,5.91,0,0,0-7.29,1.64c-3.55,4.51-9.76,13.36-16.93,27.73-2,4.11-6.21,2-4.8-2.21C46,34.63,50.83,26.26,54.52,20.29a5.91,5.91,0,0,0-4.08-8.93l-1.14-.19A5.9,5.9,0,0,0,43,14.4,163.52,163.52,0,0,0,32.56,41.79c-1,3.71-5.48,2.83-5-.86s2.83-11.25,4.7-17.09a5.91,5.91,0,0,0-5.65-7.71h0a5.9,5.9,0,0,0-5.6,4.1c-2.59,8.11-7.19,27.24-1.3,47.82C24.2,83.56,38.1,98.91,56.25,98.91c15.46,0,29.25-10.35,36.07-26.94A10.55,10.55,0,0,0,89,59.54h0a5.9,5.9,0,0,0-9,2.34C77.27,68.18,72.77,75.59,67.94,70.43Z"/></svg>