<svg id="Layer_1" data-name="Layer 1" xmlns="http://www.w3.org/2000/svg" viewBox="0 0 87.81 87.81"><title>flowene logo</title><path d="M56.84,59.34C50.66,52.75,69.68,36.92,78.75,30A5.91,5.91,0,0,0,80,21.94L78.33,19.5a5.91,5.91,0,0,0-8.94-.91A167.16,167.16,0,0,0,51,39.11c-2.12,3.06-6.27.53-3.76-3.8,3.93-6.78,12.61-16.22,18.42-22.21A5.91,5.91,0,0,0,64,3.7L61.87,2.62a5.91,5.91,0,0,0-7.29,1.64C51,8.76,44.82,17.61,37.65,32c-2,4.11-6.21,2-4.8-2.21,2.09-6.25,6.88-14.62,10.56-20.59A5.91,5.91,0,0,0,39.34.26L38.2.08A5.9,5.9,0,0,0,31.95,3.3,163.52,163.52,0,0,0,21.46,30.69c-1,3.71-5.48,2.83-5-.86s2.83-11.25,4.7-17.09A5.91,5.91,0,0,0,15.56,5h0A5.9,5.9,0,0,0,10,9.14C7.36,17.24,2.76,36.37,8.66,57,13.1,72.46,27,87.81,45.15,87.81c15.46,0,29.25-10.35,36.07-26.94a10.55,10.55,0,0,0-3.36-12.42h0a5.9,5.9,0,0,0-9,2.34C66.18,57.09,61.68,64.49,56.84,59.34Z"/></svg>