<svg id="Layer_1" data-name="Layer 1" xmlns="http://www.w3.org/2000/svg" viewBox="0 0 501.16 101.15"><defs><style>.cls-1{fill:#fff;}</style></defs><title>flowene logo</title><path class="cls-1" d="M46.62,54.18c-5.65-6,11.72-20.47,20-26.8A5.39,5.39,0,0,0,67.78,20l-1.54-2.22A5.39,5.39,0,0,0,58.08,17,152.64,152.64,0,0,0,41.27,35.71c-1.93,2.79-5.73.49-3.43-3.47C41.43,26,49.35,17.43,54.65,12a5.39,5.39,0,0,0-1.47-8.58l-2-1a5.4,5.4,0,0,0-6.65,1.5C41.31,8,35.64,16.08,29.1,29.21c-1.87,3.75-5.67,1.85-4.38-2,1.91-5.71,6.28-13.35,9.64-18.8A5.39,5.39,0,0,0,30.63.24l-1-.17A5.39,5.39,0,0,0,23.88,3a149.32,149.32,0,0,0-9.57,25c-.93,3.39-5,2.58-4.52-.78s2.58-10.27,4.3-15.6a5.39,5.39,0,0,0-5.16-7h0A5.39,5.39,0,0,0,3.81,8.34C1.44,15.75-2.76,33.22,2.62,52,6.68,66.17,19.37,80.18,35.94,80.18c14.12,0,26.71-9.45,32.94-24.6a9.63,9.63,0,0,0-3.07-11.34h0a5.39,5.39,0,0,0-8.2,2.14C55.14,52.13,51,58.89,46.62,54.18Z"/><path class="cls-1" d="M98.81,80a9.52,9.52,0,0,1-7-2.72A9.27,9.27,0,0,1,89,70.42V47.49a6.06,6.06,0,0,1-4.83-.77,9.58,9.58,0,0,1-3.44-4.11,13.66,13.66,0,0,1-1.28-5.91,12.92,12.92,0,0,1,1.34-5.86,9.83,9.83,0,0,1,3.55-4.06,5.65,5.65,0,0,1,4.88-.57,41.42,41.42,0,0,1,3-13.52,21.67,21.67,0,0,1,7.2-9.3,21.5,21.5,0,0,1,18.91-2.11,12.14,12.14,0,0,1,4.78,3.24q3.39-3.8,9.66-3.8a8.94,8.94,0,0,1,7.09,2.93,10.46,10.46,0,0,1,2.57,7.14V70.62A9.36,9.36,0,0,1,140,77.3a9.2,9.2,0,0,1-7,2.67q-5,0-7.56-2.67a9.36,9.36,0,0,1-2.52-6.68V21.38l-.1-.1a10.69,10.69,0,0,1-2.57,1.54,8.29,8.29,0,0,1-3.29.62,10.5,10.5,0,0,1-5.45-1.29A12.09,12.09,0,0,1,107.91,19q-1.39-1.85-2.52-3.39-3.7-5.14-7.2-3.29a3.48,3.48,0,0,0-2,2.57A5.49,5.49,0,0,0,97,18.81q2.78,5,5.55,6.68a9,9,0,0,0,5.35,1.44l3.29-.21q5-.51,7.3,2.42a12.37,12.37,0,0,1,2.26,7.76,12.14,12.14,0,0,1-2.26,7.71q-2.26,2.88-7.3,2.47l-2.47-.1V70.42A9.36,9.36,0,0,1,106,77.25,9.62,9.62,0,0,1,98.81,80Z"/><path class="cls-1" d="M173.44,80.18q-12,0-19.17-7.14t-7.14-20.2a29.07,29.07,0,0,1,3.29-14.08,24.08,24.08,0,0,1,9.2-9.51,27,27,0,0,1,13.83-3.44q8.84,0,14.7,3.44a21.83,21.83,0,0,1,8.79,9.51,32,32,0,0,1,2.93,14.08q0,13.06-6.53,20.2T173.44,80.18ZM159.36,51.09a4.53,4.53,0,0,0,3.19,4.47q3.19,1.29,10.9,1.29t10.9-1.29a4.54,4.54,0,0,0,3.19-4.47,4.39,4.39,0,0,0-3.19-4.32q-3.19-1.23-10.9-1.23t-10.9,1.23A4.38,4.38,0,0,0,159.36,51.09Z"/><path class="cls-1" d="M225,80a12.86,12.86,0,0,1-9.71-3.91q-3.75-3.91-6.84-12.85L200.68,40a12.5,12.5,0,0,1-.1-7.92,8.09,8.09,0,0,1,5.65-5.45,9.46,9.46,0,0,1,7.5.21,9.16,9.16,0,0,1,4.73,5.65l8.43,25.19q1.44,4.42,3,5.91a3.83,3.83,0,0,0,4.11.67,4,4,0,0,0,2.72-3.14q.56-2.41-1.49-8.38L231,40a12.43,12.43,0,0,1-.05-8,8.23,8.23,0,0,1,5.71-5.4,9.46,9.46,0,0,1,7.5.21,9.16,9.16,0,0,1,4.73,5.65l8.64,26.32a12.63,12.63,0,0,0,2.57,4.32,4.06,4.06,0,0,0,4.52,1.13,4.19,4.19,0,0,0,2.83-2.88,8.33,8.33,0,0,0-.26-5,25.17,25.17,0,0,0-2.72-6.17,41.82,41.82,0,0,0-2.88-3.91,16,16,0,0,1-2.26-3.5,14.13,14.13,0,0,1-1.08-5,9.47,9.47,0,0,1,1.39-5.81A11.19,11.19,0,0,1,264,28a12.67,12.67,0,0,1,6-1.44,10.7,10.7,0,0,1,8.17,3.34,11.12,11.12,0,0,1,3.14,7.86,24,24,0,0,1-.51,4.32A32.37,32.37,0,0,1,279.43,47l-4.32,11.21q-1.34,3.7-3,7.56a42,42,0,0,1-3.91,7A20.43,20.43,0,0,1,263.08,78a11.4,11.4,0,0,1-6.68,2q-6.58,0-10.54-3.39t-6.22-11.21h-1a26.22,26.22,0,0,1-4.42,10.49Q231.11,80,225,80Z"/><path class="cls-1" d="M308.42,101.15a36.78,36.78,0,0,1-10.64-1.34,30.2,30.2,0,0,1-8.38-4.11,13.12,13.12,0,0,1-4.93-6.89,11.2,11.2,0,0,1,5.6-12.75,9.44,9.44,0,0,1,4.52-.87,10.14,10.14,0,0,1,3.85,1q3.6,1.75,5.6,2.52a12.68,12.68,0,0,0,4.57.77A8.65,8.65,0,0,0,315,76.79q2.62-2.67,2.62-7.5V61h-1.85a13.56,13.56,0,0,1-4.16,8.58q-3.45,3.14-9.41,3.14a18.84,18.84,0,0,1-8.84-2.26,17.5,17.5,0,0,1-7.09-7.2q-2.78-4.93-2.78-13.06,0-11.92,5.24-17.78a17.37,17.37,0,0,1,13.57-5.86,13.92,13.92,0,0,1,9.87,3.85q4.11,3.86,4.11,10.74l.31-.1V35.26A9.48,9.48,0,0,1,319,28.94q2.31-2.72,7.25-2.72,5.24,0,7.56,2.72a9.48,9.48,0,0,1,2.31,6.32l.1,32.38a52.12,52.12,0,0,1-2.62,18.2,21.94,21.94,0,0,1-8.84,11.41Q318.59,101.15,308.42,101.15Zm-7.61-52.74q0,5.55,7.4,5.55Q313,54,315,52.63a4.75,4.75,0,0,0,2-4.21q0-3-2-4.11t-6.84-1.13a10.64,10.64,0,0,0-5.4,1.13Q300.81,45.44,300.81,48.42Z"/><path class="cls-1" d="M341,53.25A30.3,30.3,0,0,1,344.24,39a23.71,23.71,0,0,1,9.25-9.66,30.62,30.62,0,0,1,26-1.13,20.77,20.77,0,0,1,8.17,6.32,14.12,14.12,0,0,1,3,8.69q0,4.93-2.88,7t-8.53,2.06H357.65a5.5,5.5,0,0,0,2.11,4.42q2.11,1.75,7.14,1.75a21,21,0,0,0,4.78-.51q2.21-.51,4.52-1a26.6,26.6,0,0,1,5.19-.46,8.79,8.79,0,0,1,6.78,2.93q2.67,2.93,2.67,8.07,0,6.07-6.22,9.46t-16.29,3.39A32.3,32.3,0,0,1,355,77.51a23.17,23.17,0,0,1-10.13-8.79Q341,62.71,341,53.25Zm33.31-4.42q1.54,0,1-1.44a6.26,6.26,0,0,0-2.47-3,9.82,9.82,0,0,0-6-1.54q-4.52,0-6.73,2a5.47,5.47,0,0,0-2.21,4Z"/><path class="cls-1" d="M405.45,80a9.79,9.79,0,0,1-7.25-2.72,9.14,9.14,0,0,1-2.72-6.73v-34a10.79,10.79,0,0,1,2.57-7.3q2.57-3,7.4-3t7.2,3a11.38,11.38,0,0,1,2.47,7.5v5.14H417q0-5.86,2.11-9.25a12.28,12.28,0,0,1,5.4-4.88,15.84,15.84,0,0,1,6.58-1.49q7.91,0,11.62,5.71t3.7,16.19V70.52a9.24,9.24,0,0,1-2.67,6.73A9.62,9.62,0,0,1,436.5,80a9.93,9.93,0,0,1-7.35-2.72,9.14,9.14,0,0,1-2.72-6.73V52.32A10.21,10.21,0,0,0,425,46.57,4.59,4.59,0,0,0,421,44.51a4.85,4.85,0,0,0-4.47,2.26,10.85,10.85,0,0,0-1.39,5.76v18a9.44,9.44,0,0,1-2.57,6.73A9.28,9.28,0,0,1,405.45,80Z"/><path class="cls-1" d="M451.3,53.25A30.3,30.3,0,0,1,454.54,39a23.71,23.71,0,0,1,9.25-9.66,30.62,30.62,0,0,1,26-1.13A20.77,20.77,0,0,1,498,34.49a14.12,14.12,0,0,1,3,8.69q0,4.93-2.88,7t-8.53,2.06H468a5.5,5.5,0,0,0,2.11,4.42q2.11,1.75,7.14,1.75a21,21,0,0,0,4.78-.51q2.21-.51,4.52-1a26.6,26.6,0,0,1,5.19-.46,8.79,8.79,0,0,1,6.78,2.93q2.67,2.93,2.67,8.07,0,6.07-6.22,9.46t-16.29,3.39a32.3,32.3,0,0,1-13.31-2.78,23.17,23.17,0,0,1-10.13-8.79Q451.3,62.71,451.3,53.25Zm33.31-4.42q1.54,0,1-1.44a6.26,6.26,0,0,0-2.47-3,9.82,9.82,0,0,0-6-1.54q-4.52,0-6.73,2a5.47,5.47,0,0,0-2.21,4Z"/></svg>